<svg width="119" height="154" viewBox="0 0 119 154" fill="none" xmlns="http://www.w3.org/2000/svg">
<path d="M72.1744 86.8473C70.8161 87.1516 69.4931 87.7151 68.2875 88.5025C65.1467 90.5038 63.3194 93.3606 64.2064 94.8827C65.0933 96.4048 68.3584 96.0155 71.4992 94.0142C72.7209 93.2547 73.8063 92.2839 74.6885 91.1619C75.0979 90.6198 75.1713 89.9443 74.8761 89.4394L73.7239 87.462C73.4308 86.9555 72.8227 86.7146 72.1744 86.8473Z" fill="#D5D6DB"/>
<path d="M64.2874 59.8543C63.3025 60.0751 62.343 60.4839 61.4688 61.0549C59.1919 62.5057 57.8662 64.5771 58.5088 65.6799C59.1514 66.7827 61.5198 66.5002 63.7964 65.0495C64.6823 64.4985 65.4692 63.7942 66.1091 62.9806C66.4055 62.5876 66.4587 62.0983 66.2447 61.7322L65.4104 60.3004C65.1981 59.9333 64.7575 59.7582 64.2874 59.8543Z" fill="#D5D6DB"/>
<path d="M51.4732 60.9846C51.254 60.9601 51.0202 61.0186 50.8174 61.1481L45.4692 64.5563C45.0219 64.8405 44.8429 65.3878 45.0698 65.779C45.1217 65.8686 45.1927 65.9452 45.2789 66.0042L58.4606 75.0891L76.2941 63.7244L51.4732 60.9846Z" fill="#029BC5"/>
<path d="M107.85 59.7L59.3182 90.2521L30.6055 101.678L15.9623 104.588L14.3514 101.851L95.2465 51.9045C97.6573 50.4096 100.343 49.492 103.032 49.2449C104.209 49.143 105.372 49.1822 106.493 49.361C107.487 49.5117 108.43 49.8024 109.294 50.2245C110.258 50.7028 112.092 50.7579 112.687 51.7107C112.689 51.7092 114.091 56.0836 107.85 59.7Z" fill="#E1E6E9"/>
<path d="M59.9615 86.2096L38.9663 119.68C38.704 120.15 38.8597 120.676 39.3136 120.855C39.5921 120.965 39.9331 120.922 40.2195 120.74L45.5635 117.35C46.5913 116.697 47.5014 115.869 48.2376 114.915L88.954 67.0464L59.9615 86.2096Z" fill="#029BC5"/>
<path d="M6.98191 85.0921C6.63169 84.9724 6.2149 85.0345 5.86308 85.2586L1.44558 88.0719C0.843666 88.455 0.603816 89.1914 0.909678 89.7171C0.967953 89.817 1.04365 89.905 1.13439 89.9774L13.5112 99.8898L26.5242 91.7617L6.98191 85.0921Z" fill="#029BC5"/>
<path d="M17.6595 101.677L10.9981 111.006C10.9004 111.14 10.9234 111.308 11.0493 111.382C11.1401 111.435 11.2642 111.425 11.365 111.358L15.4932 108.742C15.5253 108.721 15.5543 108.696 15.5783 108.667L25.3118 96.832L17.6595 101.677Z" fill="#029BC5"/>
<path d="M105.697 49.7632C104.542 49.5778 103.345 49.5382 102.132 49.6448C100.951 51.2959 100.196 53.1506 99.9427 55.024C99.9241 55.4003 100.227 55.6712 100.62 55.629C100.743 55.6158 100.864 55.5729 100.973 55.5041L108.581 50.6598C107.692 50.2212 106.72 49.9194 105.697 49.7632Z" fill="#029BC5"/>
<path d="M89.1174 58.6714L94.0844 55.5344L98.711 63.4035L93.744 66.5404L89.1174 58.6714Z" fill="#D5D6DB"/>
<path d="M85.992 61.7837C85.3934 62.1629 85.1542 62.8917 85.458 63.4114L85.9504 64.2534C86.2742 64.7598 87.0135 64.8489 87.6017 64.4522C88.1616 64.0744 88.387 63.3877 88.1172 62.8807L87.6249 62.0387C87.3213 61.5194 86.5905 61.4052 85.992 61.7837Z" fill="#3A556A"/>
<path d="M81.5275 64.5562C80.929 64.9353 80.6897 65.6641 80.9936 66.1838L81.4859 67.0258C81.8098 67.5323 82.5491 67.6213 83.1373 67.2246C83.6972 66.8468 83.9226 66.1602 83.6528 65.6531L83.1605 64.8112C82.8566 64.2921 82.1258 64.1778 81.5275 64.5562Z" fill="#3A556A"/>
<path d="M77.0617 67.3295C76.4638 67.7091 76.2254 68.437 76.529 68.9563L77.0213 69.7982C77.3452 70.3047 78.0845 70.3937 78.6727 69.997C79.2326 69.6193 79.458 68.9326 79.1882 68.4256L78.6959 67.5836C78.392 67.0639 77.6605 66.9502 77.0617 67.3295Z" fill="#3A556A"/>
<path d="M72.5974 70.1019C71.9995 70.4816 71.7611 71.2095 72.0647 71.7288L72.557 72.5707C72.8809 73.0772 73.6202 73.1663 74.2084 72.7696C74.7683 72.3918 74.9937 71.7051 74.7239 71.1981L74.2316 70.3561C73.9275 69.8365 73.1959 69.7228 72.5974 70.1019Z" fill="#3A556A"/>
<path d="M68.1335 72.8746C67.5352 73.2544 67.2967 73.9826 67.6005 74.5021L68.0931 75.3444C68.3968 75.8637 69.128 75.9774 69.7264 75.5984C70.3248 75.2195 70.5637 74.4913 70.26 73.972L69.7674 73.1297C69.4645 72.6099 68.7335 72.4954 68.1347 72.8738C68.1342 72.8741 68.134 72.8743 68.1335 72.8746Z" fill="#3A556A"/>
<path d="M63.6691 75.647C63.0708 76.0268 62.8323 76.7551 63.1361 77.2746L63.6287 78.1169C63.9324 78.6362 64.6636 78.7499 65.262 78.3709C65.8604 77.9919 66.0993 77.2637 65.7956 76.7445L65.303 75.9021C65.0001 75.3824 64.2691 75.2679 63.6703 75.6462C63.6698 75.6466 63.6693 75.6469 63.6691 75.647Z" fill="#3A556A"/>
<path d="M59.2044 78.4195C58.6062 78.7993 58.3677 79.5275 58.6715 80.047L59.1641 80.8893C59.4685 81.4081 60.2001 81.5207 60.7978 81.1412C61.3945 80.7624 61.6329 80.0357 61.3307 79.5171L60.8381 78.6748C60.5346 78.1551 59.8033 78.0408 59.2044 78.4195Z" fill="#3A556A"/>
<path d="M54.7398 81.192C54.1416 81.5718 53.9031 82.3 54.2069 82.8195L54.6995 83.6618C55.0039 84.1806 55.7355 84.2932 56.3332 83.9137C56.9299 83.5349 57.1683 82.8082 56.8661 82.2895L56.3735 81.4472C56.07 80.9276 55.3387 80.8132 54.7398 81.192Z" fill="#3A556A"/>
<path d="M50.2755 83.9644C49.6773 84.3442 49.4388 85.0724 49.7426 85.5919L50.2352 86.4342C50.5396 86.953 51.2712 87.0656 51.8689 86.6861C52.4657 86.3073 52.7041 85.5806 52.4018 85.062L51.9092 84.2197C51.6054 83.7002 50.8742 83.5859 50.2755 83.9644Z" fill="#3A556A"/>
<path d="M45.8097 86.7376C45.2114 87.1166 44.9725 87.8448 45.2761 88.3641L45.2768 88.3651L45.7694 89.2075C46.0738 89.7263 46.8054 89.8389 47.4031 89.4594C47.9998 89.0805 48.2382 88.3539 47.936 87.8352L47.4434 86.9929C47.1398 86.4732 46.4086 86.3589 45.8097 86.7376Z" fill="#3A556A"/>
<path d="M41.3466 89.5094C40.7482 89.8883 40.5093 90.6165 40.8129 91.1358L40.8136 91.1368L41.3062 91.9792C41.6106 92.4979 42.3422 92.6105 42.94 92.231C43.5367 91.8522 43.7751 91.1256 43.4728 90.6069L42.9802 89.7646C42.6764 89.2451 41.9452 89.1308 41.3466 89.5094Z" fill="#3A556A"/>
</svg>
